<svg width="260" height="52" viewBox="0 0 260 52" fill="none" xmlns="http://www.w3.org/2000/svg">
<g clip-path="url(#clip0_3115_10)">
<path d="M44.6418 10.4445L25.4682 41.03L15.7129 41.1757L35.7647 10.4446L44.6418 10.4445Z" fill="#C70000"/>
<path fill-rule="evenodd" clip-rule="evenodd" d="M34.003 35.1839L34.0394 35.2285L38.2702 29.1298L38.0074 28.7962L34.003 35.1839ZM23.2638 22.0454L27.5341 15.501L23.3864 10.2358L13.7732 10.4343L23.2638 22.0454Z" fill="#C70000"/>
<path d="M47.4023 11.728C50.3201 13.5689 52.3871 16.4934 53.1486 19.8582C53.9101 23.223 53.3037 26.7525 51.4629 29.6703C49.6221 32.5881 46.6976 34.6551 43.3327 35.4166C39.9679 36.1781 36.4384 35.5717 33.5206 33.7309L37.8733 26.8318C38.9613 27.5182 40.2774 27.7444 41.5322 27.4604C42.7869 27.1764 43.8774 26.4057 44.5638 25.3177C45.2503 24.2296 45.4764 22.9135 45.1924 21.6588C44.9085 20.4041 44.1377 19.3135 43.0497 18.6271L47.4023 11.728Z" fill="#910000"/>
<path d="M68.7527 28.377V21.3999L69.837 24.2049L62.4592 11.8771H67.3856L72.7127 20.8106H69.8606L75.2113 11.8771H79.7369L72.3827 24.2049L73.4198 21.3999V28.377H68.7527ZM85.5665 28.6515C83.5401 28.6515 81.9582 28.0959 80.8208 26.9846C79.6834 25.8734 79.1147 24.298 79.1147 22.2586V14.6499H82.9975V22.1409C82.9975 23.3175 83.2263 24.1608 83.6839 24.6706C84.1545 25.1805 84.7951 25.4354 85.6057 25.4354C86.4162 25.4354 87.0503 25.1805 87.5079 24.6706C87.9654 24.1608 88.1942 23.3175 88.1942 22.1409V14.6499H92.0182V22.2586C92.0182 24.298 91.4495 25.8734 90.3121 26.9846C89.1747 28.0959 87.5929 28.6515 85.5665 28.6515ZM93.472 28.377V14.6499H99.9629C101.479 14.6499 102.813 14.9309 103.963 15.4931C105.114 16.0553 106.009 16.8462 106.65 17.8659C107.304 18.8857 107.63 20.1015 107.63 21.5134C107.63 22.9123 107.304 24.1281 106.65 25.1609C106.009 26.1806 105.114 26.9716 103.963 27.5337C102.813 28.0959 101.479 28.377 99.9629 28.377L93.472 28.377ZM97.3548 25.2786H99.806C100.59 25.2786 101.27 25.1347 101.845 24.8471C102.434 24.5464 102.891 24.115 103.218 23.5529C103.545 22.9776 103.708 22.2978 103.708 21.5134C103.708 20.7159 103.545 20.0361 103.218 19.474C102.891 18.9118 102.434 18.4869 101.845 18.1993C101.27 17.8986 100.59 17.7483 99.806 17.7483H97.3548V25.2786ZM117.674 14.6499H121.557V28.377H117.674V14.6499ZM112.379 28.377H108.497V14.6499L112.379 14.6499V28.377ZM117.949 23.0234H112.105V19.8073H117.949V23.0234ZM121.472 28.377L127.532 14.6499H131.355L137.435 28.377H133.395L128.649 16.5521H130.179L125.433 28.377H121.472ZM124.786 25.71L125.786 22.8469H132.493L133.493 25.71H124.786ZM142.166 28.377V11.8771H149.709C151.218 11.8771 152.514 12.1207 153.598 12.6078C154.698 13.095 155.547 13.8021 156.144 14.7292C156.741 15.6407 157.04 16.7249 157.04 17.9821C157.04 19.2235 156.741 20.2999 156.144 21.2113C155.547 22.1227 154.698 22.8299 153.598 23.3327C152.514 23.8199 151.218 24.0634 149.709 24.0634H144.759L146.833 22.0363V28.377H142.166ZM146.833 22.5313L144.759 20.3863H149.426C150.401 20.3863 151.123 20.1742 151.595 19.7499C152.082 19.3256 152.325 18.7363 152.325 17.9821C152.325 17.2121 152.082 16.6149 151.595 16.1906C151.123 15.7664 150.401 15.5542 149.426 15.5542H144.759L146.833 13.4092V22.5313ZM157.854 28.377V14.6499H164.129C165.384 14.6499 166.463 14.8525 167.365 15.2578C168.28 15.6631 168.986 16.2514 169.483 17.0227C169.98 17.781 170.228 18.683 170.228 19.7289C170.228 20.7617 169.98 21.6572 169.483 22.4155C168.986 23.1607 168.28 23.7359 167.365 24.1412C166.463 24.5334 165.384 24.7295 164.129 24.7295H160.011L161.737 23.1018V28.377L157.854 28.377ZM166.345 28.377L162.933 23.3764H167.071L170.502 28.377H166.345ZM161.737 23.5136L160.011 21.7291H163.894C164.704 21.7291 165.306 21.5526 165.698 21.1996C166.103 20.8467 166.306 20.3564 166.306 19.7289C166.306 19.0883 166.103 18.5915 165.698 18.2385C165.306 17.8855 164.704 17.709 163.894 17.709H160.011L161.737 15.9245V23.5136ZM169.546 28.377L175.606 14.6499H179.43L185.509 28.377H181.469L176.723 16.5521H178.253L173.507 28.377H169.546ZM172.86 25.71L173.86 22.8469H180.567L181.567 25.71H172.86ZM187.665 28.377V17.7287H183.449V14.6499H195.745V17.7287H191.548V28.377H187.665ZM193.678 28.377L199.738 14.6499H203.562L209.641 28.377H205.601L200.855 16.5521H202.385L197.639 28.377H193.678ZM196.992 25.71L197.992 22.8469H204.699L205.699 25.71H196.992ZM209.565 28.377V14.6499H212.761L218.448 23.9843H216.762L222.292 14.6499H225.488L225.528 28.377L221.958 28.377L221.919 20.0819H222.527L218.389 27.0239H216.664L212.408 20.0819H213.154V28.377H209.565ZM225.451 28.377L231.511 14.6499H235.335L241.414 28.377H237.374L232.628 16.5521H234.158L229.412 28.377H225.451ZM228.765 25.71L229.765 22.8469H236.472L237.472 25.71H228.765Z" fill="#A20000"/>
<path d="M71.5227 41.2396C70.8161 41.2396 70.2027 41.113 69.6827 40.8596C69.1694 40.5996 68.7694 40.243 68.4827 39.7896C68.2027 39.3296 68.0627 38.7996 68.0627 38.1996C68.0627 37.6063 68.1661 37.053 68.3727 36.5396C68.5861 36.0263 68.8861 35.583 69.2727 35.2096C69.6594 34.8296 70.1227 34.533 70.6627 34.3196C71.2027 34.1063 71.8027 33.9996 72.4627 33.9996C73.1294 33.9996 73.7061 34.1063 74.1927 34.3196C74.6861 34.5263 75.0827 34.8263 75.3827 35.2196L74.2227 36.1596C73.9894 35.8796 73.7227 35.6796 73.4227 35.5596C73.1294 35.4396 72.7861 35.3796 72.3927 35.3796C71.9794 35.3796 71.6061 35.4496 71.2727 35.5896C70.9461 35.723 70.6661 35.913 70.4327 36.1596C70.1994 36.4063 70.0194 36.6963 69.8927 37.0296C69.7661 37.3563 69.7027 37.713 69.7027 38.0996C69.7027 38.453 69.7794 38.763 69.9327 39.0296C70.0861 39.2896 70.3127 39.493 70.6127 39.6396C70.9194 39.7863 71.2927 39.8596 71.7327 39.8596C72.0661 39.8596 72.3861 39.803 72.6927 39.6896C72.9994 39.5763 73.2961 39.3996 73.5827 39.1596L74.2027 40.3896C73.8494 40.663 73.4394 40.873 72.9727 41.0196C72.5127 41.1663 72.0294 41.2396 71.5227 41.2396ZM72.7827 40.1396L73.3027 37.5096H74.7827L74.2027 40.3896L72.7827 40.1396ZM78.8176 41.1996C78.2576 41.1996 77.7709 41.0996 77.3576 40.8996C76.9509 40.6996 76.6342 40.4196 76.4076 40.0596C76.1809 39.6996 76.0676 39.2763 76.0676 38.7896C76.0676 38.1896 76.2009 37.6563 76.4676 37.1896C76.7409 36.7163 77.1142 36.343 77.5876 36.0696C78.0676 35.7963 78.6176 35.6596 79.2376 35.6596C79.7642 35.6596 80.2176 35.7596 80.5976 35.9596C80.9776 36.153 81.2709 36.4263 81.4776 36.7796C81.6909 37.1263 81.7976 37.543 81.7976 38.0296C81.7976 38.1696 81.7876 38.3096 81.7676 38.4496C81.7542 38.5896 81.7342 38.723 81.7076 38.8496H77.2576L77.4176 37.9396H80.9776L80.3376 38.2196C80.3909 37.9196 80.3742 37.6696 80.2876 37.4696C80.2009 37.263 80.0609 37.1063 79.8676 36.9996C79.6742 36.8863 79.4409 36.8296 79.1676 36.8296C78.8276 36.8296 78.5376 36.913 78.2976 37.0796C78.0642 37.2396 77.8876 37.463 77.7676 37.7496C77.6476 38.0363 77.5876 38.3596 77.5876 38.7196C77.5876 39.133 77.7009 39.443 77.9276 39.6496C78.1609 39.8496 78.5109 39.9496 78.9776 39.9496C79.2509 39.9496 79.5142 39.9063 79.7676 39.8196C80.0209 39.733 80.2376 39.6096 80.4176 39.4496L81.0676 40.4796C80.7542 40.7263 80.4009 40.9096 80.0076 41.0296C79.6209 41.143 79.2242 41.1996 78.8176 41.1996ZM86.9369 35.6596C87.3969 35.6596 87.7869 35.7563 88.1069 35.9496C88.4269 36.1363 88.6535 36.413 88.7869 36.7796C88.9202 37.1463 88.9335 37.5996 88.8269 38.1396L88.2269 41.1196H86.6669L87.2469 38.2396C87.3269 37.8463 87.2935 37.543 87.1469 37.3296C87.0069 37.1163 86.7469 37.0096 86.3669 37.0096C85.9735 37.0096 85.6435 37.123 85.3769 37.3496C85.1169 37.5763 84.9369 37.923 84.8369 38.3896L84.2969 41.1196H82.7369L83.8069 35.7396H85.2869L84.9769 37.2596L84.7569 36.7996C85.0169 36.4063 85.3369 36.1196 85.7169 35.9396C86.1035 35.753 86.5102 35.6596 86.9369 35.6596ZM93.0305 41.1996C92.4705 41.1996 91.9838 41.0996 91.5705 40.8996C91.1638 40.6996 90.8471 40.4196 90.6205 40.0596C90.3938 39.6996 90.2805 39.2763 90.2805 38.7896C90.2805 38.1896 90.4138 37.6563 90.6805 37.1896C90.9538 36.7163 91.3271 36.343 91.8005 36.0696C92.2805 35.7963 92.8305 35.6596 93.4505 35.6596C93.9771 35.6596 94.4305 35.7596 94.8105 35.9596C95.1905 36.153 95.4838 36.4263 95.6905 36.7796C95.9038 37.1263 96.0105 37.543 96.0105 38.0296C96.0105 38.1696 96.0005 38.3096 95.9805 38.4496C95.9671 38.5896 95.9471 38.723 95.9205 38.8496H91.4705L91.6305 37.9396H95.1905L94.5505 38.2196C94.6038 37.9196 94.5871 37.6696 94.5005 37.4696C94.4138 37.263 94.2738 37.1063 94.0805 36.9996C93.8871 36.8863 93.6538 36.8296 93.3805 36.8296C93.0405 36.8296 92.7505 36.913 92.5105 37.0796C92.2771 37.2396 92.1005 37.463 91.9805 37.7496C91.8605 38.0363 91.8005 38.3596 91.8005 38.7196C91.8005 39.133 91.9138 39.443 92.1405 39.6496C92.3738 39.8496 92.7238 39.9496 93.1905 39.9496C93.4638 39.9496 93.7271 39.9063 93.9805 39.8196C94.2338 39.733 94.4505 39.6096 94.6305 39.4496L95.2805 40.4796C94.9671 40.7263 94.6138 40.9096 94.2205 41.0296C93.8338 41.143 93.4371 41.1996 93.0305 41.1996ZM96.9498 41.1196L98.0198 35.7396H99.4998L99.1898 37.2696L99.0498 36.8296C99.2898 36.3963 99.6031 36.093 99.9898 35.9196C100.376 35.7463 100.84 35.6596 101.38 35.6596L101.1 37.0996C101.033 37.093 100.97 37.0896 100.91 37.0896C100.856 37.083 100.8 37.0796 100.74 37.0796C100.28 37.0796 99.9031 37.193 99.6098 37.4196C99.3231 37.6463 99.1298 38.013 99.0298 38.5196L98.5098 41.1196H96.9498ZM104.108 41.1996C103.695 41.1996 103.312 41.1063 102.958 40.9196C102.605 40.7263 102.322 40.4496 102.108 40.0896C101.895 39.7296 101.788 39.2963 101.788 38.7896C101.788 38.3363 101.862 37.9196 102.008 37.5396C102.162 37.1596 102.375 36.8296 102.648 36.5496C102.922 36.2696 103.238 36.053 103.598 35.8996C103.958 35.7396 104.345 35.6596 104.758 35.6596C105.205 35.6596 105.588 35.743 105.908 35.9096C106.228 36.0763 106.465 36.3363 106.618 36.6896C106.778 37.0363 106.835 37.4863 106.788 38.0396C106.755 38.673 106.625 39.2296 106.398 39.7096C106.172 40.183 105.865 40.5496 105.478 40.8096C105.098 41.0696 104.642 41.1996 104.108 41.1996ZM104.588 39.9096C104.895 39.9096 105.165 39.8363 105.398 39.6896C105.638 39.5363 105.825 39.3296 105.958 39.0696C106.098 38.803 106.168 38.493 106.168 38.1396C106.168 37.773 106.058 37.483 105.838 37.2696C105.625 37.0563 105.325 36.9496 104.938 36.9496C104.638 36.9496 104.368 37.0263 104.128 37.1796C103.888 37.3263 103.698 37.533 103.558 37.7996C103.425 38.0596 103.358 38.3663 103.358 38.7196C103.358 39.0863 103.465 39.3763 103.678 39.5896C103.898 39.803 104.202 39.9096 104.588 39.9096ZM105.658 41.1196L105.868 40.0496L106.218 38.4496L106.428 36.8496L106.648 35.7396H108.208L107.138 41.1196H105.658ZM109.083 41.1196L110.563 33.6996H112.123L110.643 41.1196H109.083ZM119.702 41.2396C118.989 41.2396 118.372 41.113 117.852 40.8596C117.339 40.5996 116.942 40.243 116.662 39.7896C116.382 39.3296 116.242 38.7996 116.242 38.1996C116.242 37.6063 116.346 37.053 116.552 36.5396C116.766 36.0263 117.062 35.583 117.442 35.2096C117.829 34.8296 118.286 34.533 118.812 34.3196C119.346 34.1063 119.939 33.9996 120.592 33.9996C121.219 33.9996 121.772 34.1063 122.252 34.3196C122.732 34.533 123.096 34.8396 123.342 35.2396L122.172 36.1996C121.992 35.933 121.762 35.7296 121.482 35.5896C121.202 35.4496 120.869 35.3796 120.482 35.3796C120.089 35.3796 119.732 35.4496 119.412 35.5896C119.092 35.723 118.816 35.9163 118.582 36.1696C118.356 36.4163 118.182 36.7063 118.062 37.0396C117.942 37.373 117.882 37.7263 117.882 38.0996C117.882 38.453 117.959 38.763 118.112 39.0296C118.266 39.2896 118.489 39.493 118.782 39.6396C119.076 39.7863 119.429 39.8596 119.842 39.8596C120.202 39.8596 120.539 39.7963 120.852 39.6696C121.166 39.5363 121.449 39.3296 121.702 39.0496L122.662 40.0296C122.296 40.4563 121.859 40.7663 121.352 40.9596C120.852 41.1463 120.302 41.2396 119.702 41.2396ZM126.381 41.1996C125.834 41.1996 125.358 41.0996 124.951 40.8996C124.544 40.6996 124.228 40.4196 124.001 40.0596C123.781 39.6996 123.671 39.2763 123.671 38.7896C123.671 38.1896 123.811 37.6563 124.091 37.1896C124.371 36.7163 124.754 36.343 125.241 36.0696C125.734 35.7963 126.294 35.6596 126.921 35.6596C127.474 35.6596 127.951 35.7596 128.351 35.9596C128.758 36.1596 129.071 36.4396 129.291 36.7996C129.518 37.153 129.631 37.5763 129.631 38.0696C129.631 38.663 129.491 39.1963 129.211 39.6696C128.931 40.143 128.548 40.5163 128.061 40.7896C127.574 41.063 127.014 41.1996 126.381 41.1996ZM126.481 39.9196C126.788 39.9196 127.058 39.8463 127.291 39.6996C127.531 39.5463 127.718 39.3363 127.851 39.0696C127.984 38.803 128.051 38.493 128.051 38.1396C128.051 37.7796 127.944 37.4896 127.731 37.2696C127.518 37.0496 127.218 36.9396 126.831 36.9396C126.524 36.9396 126.251 37.0163 126.011 37.1696C125.778 37.3163 125.591 37.523 125.451 37.7896C125.318 38.0563 125.251 38.3663 125.251 38.7196C125.251 39.0863 125.358 39.3796 125.571 39.5996C125.784 39.813 126.088 39.9196 126.481 39.9196ZM134.814 35.6596C135.274 35.6596 135.664 35.7563 135.984 35.9496C136.304 36.1363 136.53 36.413 136.664 36.7796C136.797 37.1463 136.81 37.5996 136.704 38.1396L136.104 41.1196H134.544L135.124 38.2396C135.204 37.8463 135.17 37.543 135.024 37.3296C134.884 37.1163 134.624 37.0096 134.244 37.0096C133.85 37.0096 133.52 37.123 133.254 37.3496C132.994 37.5763 132.814 37.923 132.714 38.3896L132.174 41.1196H130.614L131.684 35.7396H133.164L132.854 37.2596L132.634 36.7996C132.894 36.4063 133.214 36.1196 133.594 35.9396C133.98 35.753 134.387 35.6596 134.814 35.6596ZM140.218 41.1996C139.831 41.1996 139.501 41.123 139.228 40.9696C138.955 40.8096 138.758 40.583 138.638 40.2896C138.525 39.9896 138.508 39.6363 138.588 39.2296L139.518 34.5496H141.078L140.148 39.2196C140.108 39.4463 140.131 39.6263 140.218 39.7596C140.305 39.893 140.465 39.9596 140.698 39.9596C140.805 39.9596 140.911 39.943 141.018 39.9096C141.131 39.8763 141.235 39.8296 141.328 39.7696L141.558 40.8796C141.365 40.9996 141.151 41.083 140.918 41.1296C140.685 41.1763 140.451 41.1996 140.218 41.1996ZM138.188 37.0596L138.428 35.8596L142.158 35.8596L141.918 37.0596L138.188 37.0596ZM142.874 41.1196L143.944 35.7396H145.424L145.114 37.2696L144.974 36.8296C145.214 36.3963 145.527 36.093 145.914 35.9196C146.3 35.7463 146.764 35.6596 147.304 35.6596L147.024 37.0996C146.957 37.093 146.894 37.0896 146.834 37.0896C146.78 37.083 146.724 37.0796 146.664 37.0796C146.204 37.0796 145.827 37.193 145.534 37.4196C145.247 37.6463 145.054 38.013 144.954 38.5196L144.434 41.1196H142.874ZM150.032 41.1996C149.619 41.1996 149.235 41.1063 148.882 40.9196C148.529 40.7263 148.245 40.4496 148.032 40.0896C147.819 39.7296 147.712 39.2963 147.712 38.7896C147.712 38.3363 147.785 37.9196 147.932 37.5396C148.085 37.1596 148.299 36.8296 148.572 36.5496C148.845 36.2696 149.162 36.053 149.522 35.8996C149.882 35.7396 150.269 35.6596 150.682 35.6596C151.129 35.6596 151.512 35.743 151.832 35.9096C152.152 36.0763 152.389 36.3363 152.542 36.6896C152.702 37.0363 152.759 37.4863 152.712 38.0396C152.679 38.673 152.549 39.2296 152.322 39.7096C152.095 40.183 151.789 40.5496 151.402 40.8096C151.022 41.0696 150.565 41.1996 150.032 41.1996ZM150.512 39.9096C150.819 39.9096 151.089 39.8363 151.322 39.6896C151.562 39.5363 151.749 39.3296 151.882 39.0696C152.022 38.803 152.092 38.493 152.092 38.1396C152.092 37.773 151.982 37.483 151.762 37.2696C151.549 37.0563 151.249 36.9496 150.862 36.9496C150.562 36.9496 150.292 37.0263 150.052 37.1796C149.812 37.3263 149.622 37.533 149.482 37.7996C149.349 38.0596 149.282 38.3663 149.282 38.7196C149.282 39.0863 149.389 39.3763 149.602 39.5896C149.822 39.803 150.125 39.9096 150.512 39.9096ZM151.582 41.1196L151.792 40.0496L152.142 38.4496L152.352 36.8496L152.572 35.7396H154.132L153.062 41.1196H151.582ZM157.846 41.1996C157.293 41.1996 156.81 41.0996 156.396 40.8996C155.99 40.6996 155.673 40.4196 155.446 40.0596C155.22 39.6996 155.106 39.2763 155.106 38.7896C155.106 38.1896 155.246 37.6563 155.526 37.1896C155.806 36.7163 156.193 36.343 156.686 36.0696C157.18 35.7963 157.746 35.6596 158.386 35.6596C158.96 35.6596 159.456 35.7796 159.876 36.0196C160.296 36.253 160.606 36.5863 160.806 37.0196L159.486 37.6796C159.373 37.4263 159.213 37.243 159.006 37.1296C158.806 37.0096 158.566 36.9496 158.286 36.9496C157.98 36.9496 157.706 37.0263 157.466 37.1796C157.226 37.3263 157.036 37.533 156.896 37.7996C156.756 38.0596 156.686 38.363 156.686 38.7096C156.686 39.0763 156.793 39.3696 157.006 39.5896C157.226 39.803 157.536 39.9096 157.936 39.9096C158.21 39.9096 158.46 39.853 158.686 39.7396C158.913 39.6196 159.103 39.4363 159.256 39.1896L160.406 39.9096C160.153 40.3163 159.8 40.633 159.346 40.8596C158.9 41.0863 158.4 41.1996 157.846 41.1996ZM163.683 41.1996C163.296 41.1996 162.966 41.123 162.693 40.9696C162.419 40.8096 162.223 40.583 162.103 40.2896C161.989 39.9896 161.973 39.6363 162.053 39.2296L162.983 34.5496H164.543L163.613 39.2196C163.573 39.4463 163.596 39.6263 163.683 39.7596C163.769 39.893 163.929 39.9596 164.163 39.9596C164.269 39.9596 164.376 39.943 164.483 39.9096C164.596 39.8763 164.699 39.8296 164.793 39.7696L165.023 40.8796C164.829 40.9996 164.616 41.083 164.383 41.1296C164.149 41.1763 163.916 41.1996 163.683 41.1996ZM161.653 37.0596L161.893 35.8596H165.623L165.383 37.0596H161.653ZM168.982 41.1996C168.436 41.1996 167.959 41.0996 167.552 40.8996C167.146 40.6996 166.829 40.4196 166.602 40.0596C166.382 39.6996 166.272 39.2763 166.272 38.7896C166.272 38.1896 166.412 37.6563 166.692 37.1896C166.972 36.7163 167.356 36.343 167.842 36.0696C168.336 35.7963 168.896 35.6596 169.522 35.6596C170.076 35.6596 170.552 35.7596 170.952 35.9596C171.359 36.1596 171.672 36.4396 171.892 36.7996C172.119 37.153 172.232 37.5763 172.232 38.0696C172.232 38.663 172.092 39.1963 171.812 39.6696C171.532 40.143 171.149 40.5163 170.662 40.7896C170.176 41.063 169.616 41.1996 168.982 41.1996ZM169.082 39.9196C169.389 39.9196 169.659 39.8463 169.892 39.6996C170.132 39.5463 170.319 39.3363 170.452 39.0696C170.586 38.803 170.652 38.493 170.652 38.1396C170.652 37.7796 170.546 37.4896 170.332 37.2696C170.119 37.0496 169.819 36.9396 169.432 36.9396C169.126 36.9396 168.852 37.0163 168.612 37.1696C168.379 37.3163 168.192 37.523 168.052 37.7896C167.919 38.0563 167.852 38.3663 167.852 38.7196C167.852 39.0863 167.959 39.3796 168.172 39.5996C168.386 39.813 168.689 39.9196 169.082 39.9196ZM173.215 41.1196L174.285 35.7396H175.765L175.455 37.2696L175.315 36.8296C175.555 36.3963 175.869 36.093 176.255 35.9196C176.642 35.7463 177.105 35.6596 177.645 35.6596L177.365 37.0996C177.299 37.093 177.235 37.0896 177.175 37.0896C177.122 37.083 177.065 37.0796 177.005 37.0796C176.545 37.0796 176.169 37.193 175.875 37.4196C175.589 37.6463 175.395 38.013 175.295 38.5196L174.775 41.1196H173.215ZM183.834 41.2396C183.347 41.2396 182.917 41.1696 182.544 41.0296C182.171 40.883 181.877 40.6796 181.664 40.4196C181.451 40.153 181.344 39.8396 181.344 39.4796C181.344 39.073 181.454 38.7163 181.674 38.4096C181.901 38.103 182.217 37.8263 182.624 37.5796C183.031 37.3263 183.511 37.093 184.064 36.8796C184.531 36.6996 184.887 36.5396 185.134 36.3996C185.381 36.2596 185.547 36.1263 185.634 35.9996C185.727 35.873 185.774 35.7363 185.774 35.5896C185.774 35.4496 185.717 35.333 185.604 35.2396C185.497 35.1396 185.344 35.0896 185.144 35.0896C184.891 35.0896 184.684 35.1596 184.524 35.2996C184.364 35.433 184.284 35.6196 184.284 35.8596C184.284 35.993 184.324 36.133 184.404 36.2796C184.491 36.4263 184.631 36.613 184.824 36.8396L187.854 40.2596L186.814 41.2396L183.494 37.4596C183.281 37.2196 183.121 36.983 183.014 36.7496C182.907 36.5163 182.854 36.2696 182.854 36.0096C182.854 35.5963 182.961 35.243 183.174 34.9496C183.387 34.6496 183.671 34.423 184.024 34.2696C184.384 34.1096 184.777 34.0296 185.204 34.0296C185.571 34.0296 185.894 34.0863 186.174 34.1996C186.461 34.3063 186.684 34.4663 186.844 34.6796C187.011 34.893 187.094 35.153 187.094 35.4596C187.094 35.8263 186.991 36.1463 186.784 36.4196C186.577 36.693 186.284 36.9396 185.904 37.1596C185.524 37.373 185.074 37.583 184.554 37.7896C184.194 37.9363 183.891 38.0796 183.644 38.2196C183.397 38.3596 183.211 38.5096 183.084 38.6696C182.964 38.823 182.904 39.003 182.904 39.2096C182.904 39.443 182.997 39.6363 183.184 39.7896C183.377 39.943 183.661 40.0196 184.034 40.0196C184.421 40.0196 184.797 39.9263 185.164 39.7396C185.537 39.5463 185.881 39.263 186.194 38.8896C186.507 38.5096 186.767 38.0496 186.974 37.5096L188.164 37.8996C187.884 38.593 187.527 39.1896 187.094 39.6896C186.661 40.1896 186.167 40.573 185.614 40.8396C185.061 41.1063 184.467 41.2396 183.834 41.2396ZM195.001 41.2396C194.621 41.2396 194.251 41.203 193.891 41.1296C193.538 41.063 193.215 40.9696 192.921 40.8496C192.635 40.7296 192.391 40.5996 192.191 40.4596L192.851 39.2096C193.071 39.363 193.305 39.4963 193.551 39.6096C193.805 39.7163 194.068 39.7996 194.341 39.8596C194.615 39.913 194.888 39.9396 195.161 39.9396C195.461 39.9396 195.718 39.9063 195.931 39.8396C196.151 39.773 196.318 39.6796 196.431 39.5596C196.551 39.4396 196.611 39.293 196.611 39.1196C196.611 38.9596 196.548 38.8296 196.421 38.7296C196.295 38.6296 196.128 38.5463 195.921 38.4796C195.721 38.4063 195.498 38.3363 195.251 38.2696C195.005 38.203 194.755 38.1263 194.501 38.0396C194.255 37.9463 194.028 37.833 193.821 37.6996C193.621 37.5596 193.458 37.383 193.331 37.1696C193.205 36.9563 193.141 36.6896 193.141 36.3696C193.141 35.8896 193.271 35.473 193.531 35.1196C193.798 34.7663 194.171 34.493 194.651 34.2996C195.131 34.0996 195.695 33.9996 196.341 33.9996C196.815 33.9996 197.261 34.053 197.681 34.1596C198.101 34.2596 198.461 34.4063 198.761 34.5996L198.151 35.8396C197.885 35.6596 197.588 35.5263 197.261 35.4396C196.935 35.3463 196.598 35.2996 196.251 35.2996C195.938 35.2996 195.668 35.3363 195.441 35.4096C195.221 35.483 195.051 35.5863 194.931 35.7196C194.818 35.8463 194.761 35.993 194.761 36.1596C194.761 36.3263 194.821 36.463 194.941 36.5696C195.068 36.6696 195.235 36.7563 195.441 36.8296C195.648 36.8963 195.875 36.963 196.121 37.0296C196.368 37.0963 196.615 37.173 196.861 37.2596C197.108 37.3463 197.335 37.4563 197.541 37.5896C197.748 37.723 197.915 37.893 198.041 38.0996C198.168 38.2996 198.231 38.553 198.231 38.8596C198.231 39.3396 198.098 39.7596 197.831 40.1196C197.565 40.473 197.188 40.7496 196.701 40.9496C196.221 41.143 195.655 41.2396 195.001 41.2396ZM201.638 41.1996C201.198 41.1996 200.818 41.1063 200.498 40.9196C200.178 40.7263 199.952 40.4463 199.818 40.0796C199.685 39.713 199.672 39.2596 199.778 38.7196L200.368 35.7396H201.928L201.358 38.6196C201.278 39.013 201.308 39.3163 201.448 39.5296C201.595 39.743 201.852 39.8496 202.218 39.8496C202.605 39.8496 202.928 39.7363 203.188 39.5096C203.455 39.283 203.632 38.9363 203.718 38.4696L204.268 35.7396H205.828L204.758 41.1196H203.278L203.578 39.5996L203.798 40.0596C203.545 40.453 203.228 40.743 202.848 40.9296C202.468 41.1096 202.065 41.1996 201.638 41.1996ZM210.144 41.1996C209.71 41.1996 209.33 41.1163 209.004 40.9496C208.684 40.783 208.444 40.5263 208.284 40.1796C208.124 39.8263 208.067 39.373 208.114 38.8196C208.154 38.1796 208.284 37.623 208.504 37.1496C208.73 36.6763 209.037 36.3096 209.424 36.0496C209.81 35.7896 210.267 35.6596 210.794 35.6596C211.214 35.6596 211.6 35.7563 211.954 35.9496C212.307 36.1363 212.59 36.4096 212.804 36.7696C213.017 37.123 213.124 37.5563 213.124 38.0696C213.124 38.5163 213.047 38.933 212.894 39.3196C212.74 39.6996 212.527 40.0296 212.254 40.3096C211.987 40.5896 211.674 40.8096 211.314 40.9696C210.954 41.123 210.564 41.1996 210.144 41.1996ZM206.314 43.0596L207.774 35.7396H209.254L209.034 36.8096L208.694 38.4096L208.484 40.0096L207.874 43.0596H206.314ZM209.964 39.9096C210.277 39.9096 210.55 39.8363 210.784 39.6896C211.017 39.5363 211.2 39.3296 211.334 39.0696C211.474 38.803 211.544 38.493 211.544 38.1396C211.544 37.773 211.437 37.483 211.224 37.2696C211.01 37.0563 210.707 36.9496 210.314 36.9496C210.014 36.9496 209.744 37.0263 209.504 37.1796C209.264 37.3263 209.077 37.533 208.944 37.7996C208.81 38.0596 208.744 38.3663 208.744 38.7196C208.744 39.0863 208.85 39.3763 209.064 39.5896C209.277 39.803 209.577 39.9096 209.964 39.9096ZM217.548 41.1996C217.115 41.1996 216.735 41.1163 216.408 40.9496C216.088 40.783 215.848 40.5263 215.688 40.1796C215.528 39.8263 215.471 39.373 215.518 38.8196C215.558 38.1796 215.688 37.623 215.908 37.1496C216.135 36.6763 216.441 36.3096 216.828 36.0496C217.215 35.7896 217.671 35.6596 218.198 35.6596C218.618 35.6596 219.005 35.7563 219.358 35.9496C219.711 36.1363 219.995 36.4096 220.208 36.7696C220.421 37.123 220.528 37.5563 220.528 38.0696C220.528 38.5163 220.451 38.933 220.298 39.3196C220.145 39.6996 219.931 40.0296 219.658 40.3096C219.391 40.5896 219.078 40.8096 218.718 40.9696C218.358 41.123 217.968 41.1996 217.548 41.1996ZM213.718 43.0596L215.178 35.7396H216.658L216.438 36.8096L216.098 38.4096L215.888 40.0096L215.278 43.0596H213.718ZM217.368 39.9096C217.681 39.9096 217.955 39.8363 218.188 39.6896C218.421 39.5363 218.605 39.3296 218.738 39.0696C218.878 38.803 218.948 38.493 218.948 38.1396C218.948 37.773 218.841 37.483 218.628 37.2696C218.415 37.0563 218.111 36.9496 217.718 36.9496C217.418 36.9496 217.148 37.0263 216.908 37.1796C216.668 37.3263 216.481 37.533 216.348 37.7996C216.215 38.0596 216.148 38.3663 216.148 38.7196C216.148 39.0863 216.255 39.3763 216.468 39.5896C216.681 39.803 216.981 39.9096 217.368 39.9096ZM221.512 41.1196L222.992 33.6996H224.552L223.072 41.1196H221.512ZM225.02 41.1196L226.09 35.7396H227.64L226.57 41.1196H225.02ZM227.13 34.9896C226.857 34.9896 226.637 34.913 226.47 34.7596C226.303 34.5996 226.22 34.4063 226.22 34.1796C226.22 33.913 226.313 33.693 226.5 33.5196C226.693 33.3396 226.943 33.2496 227.25 33.2496C227.523 33.2496 227.743 33.3263 227.91 33.4796C228.083 33.6263 228.17 33.8096 228.17 34.0296C228.17 34.3163 228.073 34.5496 227.88 34.7296C227.693 34.903 227.443 34.9896 227.13 34.9896ZM231.378 41.1996C230.818 41.1996 230.331 41.0996 229.918 40.8996C229.511 40.6996 229.195 40.4196 228.968 40.0596C228.741 39.6996 228.628 39.2763 228.628 38.7896C228.628 38.1896 228.761 37.6563 229.028 37.1896C229.301 36.7163 229.675 36.343 230.148 36.0696C230.628 35.7963 231.178 35.6596 231.798 35.6596C232.325 35.6596 232.778 35.7596 233.158 35.9596C233.538 36.153 233.831 36.4263 234.038 36.7796C234.251 37.1263 234.358 37.543 234.358 38.0296C234.358 38.1696 234.348 38.3096 234.328 38.4496C234.315 38.5896 234.295 38.723 234.268 38.8496H229.818L229.978 37.9396H233.538L232.898 38.2196C232.951 37.9196 232.935 37.6696 232.848 37.4696C232.761 37.263 232.621 37.1063 232.428 36.9996C232.235 36.8863 232.001 36.8296 231.728 36.8296C231.388 36.8296 231.098 36.913 230.858 37.0796C230.625 37.2396 230.448 37.463 230.328 37.7496C230.208 38.0363 230.148 38.3596 230.148 38.7196C230.148 39.133 230.261 39.443 230.488 39.6496C230.721 39.8496 231.071 39.9496 231.538 39.9496C231.811 39.9496 232.075 39.9063 232.328 39.8196C232.581 39.733 232.798 39.6096 232.978 39.4496L233.628 40.4796C233.315 40.7263 232.961 40.9096 232.568 41.0296C232.181 41.143 231.785 41.1996 231.378 41.1996ZM235.297 41.1196L236.367 35.7396H237.847L237.537 37.2696L237.397 36.8296C237.637 36.3963 237.951 36.093 238.337 35.9196C238.724 35.7463 239.187 35.6596 239.727 35.6596L239.447 37.0996C239.381 37.093 239.317 37.0896 239.257 37.0896C239.204 37.083 239.147 37.0796 239.087 37.0796C238.627 37.0796 238.251 37.193 237.957 37.4196C237.671 37.6463 237.477 38.013 237.377 38.5196L236.857 41.1196H235.297Z" fill="#BABABA"/>
</g>
<defs>
<clipPath id="clip0_3115_10">
<rect width="260" height="50.0469" fill="white" transform="translate(0 0.976562)"/>
</clipPath>
</defs>
</svg>
