<svg width="48" height="41" viewBox="0 0 48 41" fill="none" xmlns="http://www.w3.org/2000/svg">
<path d="M33.6418 5.44449L14.4682 36.03L4.71295 36.1757L24.7647 5.4446L33.6418 5.44449Z" fill="#C70000"/>
<path fill-rule="evenodd" clip-rule="evenodd" d="M23.003 30.1839L23.0394 30.2285L27.2702 24.1298L27.0074 23.7962L23.003 30.1839ZM12.2638 17.0454L16.5341 10.501L12.3864 5.23578L2.77318 5.43433L12.2638 17.0454Z" fill="#C70000"/>
<path d="M36.4023 6.72803C39.3201 8.56886 41.3871 11.4934 42.1486 14.8582C42.9101 18.223 42.3037 21.7525 40.4629 24.6703C38.6221 27.5881 35.6976 29.6551 32.3327 30.4166C28.9679 31.1781 25.4384 30.5717 22.5206 28.7309L26.8733 21.8318C27.9613 22.5182 29.2774 22.7444 30.5322 22.4604C31.7869 22.1764 32.8774 21.4057 33.5638 20.3177C34.2503 19.2296 34.4764 17.9135 34.1924 16.6588C33.9085 15.4041 33.1377 14.3135 32.0497 13.6271L36.4023 6.72803Z" fill="#910000"/>
</svg>
